<!DOCTYPE svg PUBLIC "-//W3C//DTD SVG 1.1//EN" "http://www.w3.org/Graphics/SVG/1.1/DTD/svg11.dtd">

<svg width="64px" height="64px" viewBox="0 0 32 32" enable-background="new 0 0 32 32" version="1.1" xml:space="preserve" xmlns="http://www.w3.org/2000/svg" xmlns:xlink="http://www.w3.org/1999/xlink" fill="#64bbf1" stroke="#64bbf1"><g id="SVGRepo_bgCarrier" stroke-width="0"/><g id="SVGRepo_iconCarrier"><g id="Layer_2"/><g id="Layer_3"/><g id="Layer_4"/><g id="Layer_5"/><g id="Layer_6"/><g id="Layer_7"/><g id="Layer_8"/><g id="Layer_9"/><g id="Layer_10"/><g id="Layer_11"/><g id="Layer_12"/><g id="Layer_13"/><g id="Layer_14"/><g id="Layer_15"/><g id="Layer_16"/><g id="Layer_17"/><g id="Layer_18"/><g id="Layer_19"/><g id="Layer_20"/><g id="Layer_21"/><g id="Layer_22"/><g id="Layer_23"/><g id="Layer_24"/><g id="Layer_25"/><g id="Layer_26"/><g id="Layer_27"/><g id="Layer_28"/><g id="Layer_29"/><g id="Layer_30"><path d="M22,28c0,0.55-0.45,1-1,1H11c-0.55,0-1-0.45-1-1c0-2.21,1.79-4,4-4h1v-2c0-0.55,0.45-1,1-1s1,0.45,1,1v2h1 C20.21,24,22,25.79,22,28z" fill="#64bbf1"/><g><path d="M31,6v14c0,1.65-1.35,3-3,3H4c-1.65,0-3-1.35-3-3V6c0-1.65,1.35-3,3-3h24C29.65,3,31,4.35,31,6z" fill="#64bbf1"/></g><g><path d="M18,20h-4c-0.5522,0-1-0.4478-1-1s0.4478-1,1-1h4c0.5522,0,1,0.4478,1,1S18.5522,20,18,20z" fill="#4391B2"/></g></g><g id="Layer_31"/></g></svg>